<?xml version="1.0" encoding="utf-8"?>
<!-- Generator: Adobe Illustrator 23.0.2, SVG Export Plug-In . SVG Version: 6.00 Build 0)  -->
<svg version="1.1" id="Layer_1" xmlns="http://www.w3.org/2000/svg" xmlns:xlink="http://www.w3.org/1999/xlink" x="0px" y="0px"
	 viewBox="0 0 81 71" style="enable-background:new 0 0 81 71;" xml:space="preserve">
<style type="text/css">
	.st0{fill:#F4555A;}
	.st1{fill:#FFFFFF;}
</style>
<path id="XMLID_4_" class="st0" d="M70.6,0.31H10.78c-5.72,0-10.4,4.68-10.4,10.4v33.53c0,5.72,4.68,10.4,10.4,10.4H21.3
	c1.08,0,2.11,0.43,2.88,1.19l13.6,13.6c1.59,1.59,4.16,1.59,5.75,0l13.6-13.6c0.76-0.76,1.8-1.19,2.88-1.19H70.6
	c5.72,0,10.4-4.68,10.4-10.4V10.71C81,4.99,76.32,0.31,70.6,0.31z"/>
<path id="XMLID_23_" class="st1" d="M43.5,22.04c0-4.03-3.26-7.29-7.29-7.29c-3.39,0-6.23,2.31-7.05,5.44
	c-0.82-3.13-3.66-5.44-7.05-5.44c-4.03,0-7.29,3.26-7.29,7.29c0,1.98,0.79,3.77,2.07,5.09l0,0l0.03,0.03
	c0.02,0.02,0.04,0.04,0.06,0.06l11.66,11.66l12.29-11.31h0C42.51,26.25,43.5,24.26,43.5,22.04z"/>
</svg>
