<?xml version="1.0" encoding="iso-8859-1"?>
<!-- Generator: Adobe Illustrator 19.0.0, SVG Export Plug-In . SVG Version: 6.00 Build 0)  -->
<svg version="1.1" id="Capa_1" xmlns="http://www.w3.org/2000/svg" xmlns:xlink="http://www.w3.org/1999/xlink" x="0px" y="0px"
	 viewBox="0 0 512 512" style="enable-background:new 0 0 512 512;" xml:space="preserve">
<g>
	<g transform="translate(0 1)">
		<path style="fill:#C52828;" d="M503.467,464.067H435.2v-34.133h8.533c4.707-0.014,8.519-3.826,8.533-8.533V122.733H486.4
			L503.467,37.4h-59.733c-18.107-0.005-35.474,7.186-48.277,19.989c-12.804,12.804-19.994,30.17-19.989,48.277v51.2h-102.4v-25.6
			c-0.022-28.268-22.932-51.178-51.2-51.2H204.8v-8.533H102.4v8.533H8.533V114.2h25.6v42.667H17.067
			c-4.707,0.014-8.519,3.826-8.533,8.533v256c0.014,4.707,3.826,8.519,8.533,8.533H25.6v34.133H8.533
			C3.821,464.067,0,467.887,0,472.6c0,4.713,3.821,8.533,8.533,8.533h494.933c4.713,0,8.533-3.821,8.533-8.533
			C512,467.887,508.18,464.067,503.467,464.067z M204.8,156.867H51.2V114.2h51.2v8.533h102.4V156.867z"/>
		<path style="fill:#F44335;" d="M477.867,464.067H409.6v-34.133h8.533c4.707-0.014,8.519-3.826,8.533-8.533V122.733H460.8
			L477.867,37.4h-34.133c-18.107-0.005-35.474,7.186-48.277,19.989c-12.804,12.804-19.994,30.17-19.989,48.277v51.2h-128v-25.6
			c-0.022-28.268-22.932-51.178-51.2-51.2H179.2v-8.533H76.8v8.533H8.533V114.2H76.8v8.533h128v34.133H17.067
			c-4.707,0.014-8.519,3.826-8.533,8.533v256c0.014,4.707,3.826,8.519,8.533,8.533H25.6v34.133H8.533
			C3.821,464.067,0,467.887,0,472.6c0,4.713,3.821,8.533,8.533,8.533h469.333c4.713,0,8.533-3.821,8.533-8.533
			C486.4,467.887,482.58,464.067,477.867,464.067z"/>
		<rect x="25.6" y="429.933" style="fill:#C52828;" width="409.6" height="42.667"/>
		<path style="fill:#F57C00;" d="M76.8,208.067h153.6c4.713,0,8.533,3.821,8.533,8.533v153.6c0,4.713-3.821,8.533-8.533,8.533H76.8
			c-4.713,0-8.533-3.821-8.533-8.533V216.6C68.267,211.887,72.087,208.067,76.8,208.067z"/>
		<g>
			<path style="fill:#C52828;" d="M68.267,225.133v34.133H51.2c-4.707-0.014-8.519-3.826-8.533-8.533v-17.067
				c0.014-4.707,3.826-8.519,8.533-8.533H68.267z"/>
			<path style="fill:#C52828;" d="M68.267,327.533v34.133H51.2c-4.707-0.014-8.519-3.826-8.533-8.533v-17.067
				c0.014-4.707,3.826-8.519,8.533-8.533H68.267z"/>
		</g>
		<g>
			<path style="fill:#7F8C8D;" d="M136.533,327.533H102.4c-4.713,0-8.533-3.821-8.533-8.533c0-4.713,3.821-8.533,8.533-8.533h34.133
				c4.713,0,8.533,3.821,8.533,8.533C145.067,323.713,141.246,327.533,136.533,327.533z"/>
			<path style="fill:#7F8C8D;" d="M136.533,353.133H102.4c-4.713,0-8.533-3.821-8.533-8.533c0-4.713,3.821-8.533,8.533-8.533h34.133
				c4.713,0,8.533,3.821,8.533,8.533C145.067,349.313,141.246,353.133,136.533,353.133z"/>
			<path style="fill:#7F8C8D;" d="M204.8,310.467c-4.713,0-8.533-3.82-8.533-8.533v-17.067c0-4.713,3.821-8.533,8.533-8.533
				c4.713,0,8.533,3.821,8.533,8.533v17.067C213.333,306.646,209.513,310.467,204.8,310.467z"/>
		</g>
		<g>
			<path style="fill:#F57C00;" d="M281.6,191h128c4.713,0,8.533,3.82,8.533,8.533V267.8c0,4.713-3.821,8.533-8.533,8.533h-128
				c-4.713,0-8.533-3.82-8.533-8.533v-68.267C273.067,194.821,276.887,191,281.6,191z"/>
			<path style="fill:#F57C00;" d="M281.6,310.467h128c4.713,0,8.533,3.821,8.533,8.533v68.267c0,4.713-3.821,8.533-8.533,8.533h-128
				c-4.713,0-8.533-3.82-8.533-8.533V319C273.067,314.287,276.887,310.467,281.6,310.467z"/>
		</g>
		<g>
			<path style="fill:#FF9801;" d="M213.333,216.6v153.6c0.311,4.345-2.915,8.14-7.253,8.533H75.52
				c-4.339-0.393-7.564-4.188-7.253-8.533V216.6c-0.311-4.345,2.915-8.14,7.253-8.533h130.56
				C210.419,208.46,213.644,212.255,213.333,216.6z"/>
			<path style="fill:#FF9801;" d="M392.533,199.533V267.8c0.361,4.28-2.758,8.067-7.027,8.533H280.094
				c-4.27-0.466-7.389-4.253-7.027-8.533v-68.267c-0.361-4.28,2.758-8.067,7.027-8.533h105.412
				C389.776,191.466,392.894,195.253,392.533,199.533z"/>
			<path style="fill:#FF9801;" d="M392.533,319v68.267c0.361,4.28-2.758,8.067-7.027,8.533H280.094
				c-4.27-0.466-7.389-4.253-7.027-8.533V319c-0.361-4.28,2.758-8.067,7.027-8.533h105.412
				C389.776,310.933,392.894,314.72,392.533,319z"/>
		</g>
		<rect x="8.533" y="80.067" style="fill:#C52828;" width="93.867" height="34.133"/>
		<rect x="102.4" y="71.533" style="fill:#F57C00;" width="102.4" height="51.2"/>
		<path style="fill:#C52828;" d="M273.067,131.267v25.6H204.8v-76.8h17.067C250.134,80.089,273.044,102.999,273.067,131.267z"/>
		<path style="fill:#F44335;" d="M247.467,131.267v25.6H204.8V80.835C229.434,84.962,247.478,106.289,247.467,131.267z"/>
		<path style="fill:#7F8C8D;" d="M42.667,165.4c-4.713,0-8.533-3.821-8.533-8.533V114.2c0-4.713,3.821-8.533,8.533-8.533
			s8.533,3.821,8.533,8.533v42.667C51.2,161.579,47.379,165.4,42.667,165.4z"/>
		<path style="fill:#F57C00;" d="M452.267,37.4v85.333h-76.8v-17.067c0.002-31.136,21.057-58.332,51.2-66.133
			c5.58-1.407,11.312-2.124,17.067-2.133H452.267z"/>
		<g>
			<rect x="102.4" y="71.533" style="fill:#FF9801;" width="76.8" height="51.2"/>
			<path style="fill:#FF9801;" d="M426.667,39.533v83.2h-51.2v-17.067C375.469,74.53,396.524,47.334,426.667,39.533z"/>
		</g>
		<g>
			<polygon style="fill:#C52828;" points="503.467,37.4 486.4,122.733 452.267,122.733 452.267,37.4 			"/>
			<rect x="375.467" y="122.733" style="fill:#C52828;" width="76.8" height="34.133"/>
		</g>
	</g>
	<g>
		<path d="M51.2,371.2h8.533c0.009,9.422,7.645,17.057,17.067,17.067h153.6c9.422-0.009,17.057-7.645,17.067-17.067V217.6
			c-0.009-9.422-7.645-17.057-17.067-17.067H76.8c-9.422,0.009-17.057,7.645-17.067,17.067H51.2
			c-9.422,0.009-17.057,7.645-17.067,17.067v17.067c0.009,9.422,7.645,17.057,17.067,17.067h8.533V320H51.2
			c-9.422,0.009-17.057,7.645-17.067,17.067v17.067C34.143,363.555,41.778,371.191,51.2,371.2z M76.8,217.6h153.6l0.012,153.6H76.8
			V217.6z M51.2,251.733v-17.067h8.533v17.067H51.2z M51.2,337.067h8.533v17.067H51.2V337.067z"/>
		<path d="M102.4,328.533h34.133c4.713,0,8.533-3.821,8.533-8.533c0-4.713-3.821-8.533-8.533-8.533H102.4
			c-4.713,0-8.533,3.821-8.533,8.533C93.867,324.713,97.687,328.533,102.4,328.533z"/>
		<path d="M102.4,354.133h34.133c4.713,0,8.533-3.821,8.533-8.533c0-4.713-3.821-8.533-8.533-8.533H102.4
			c-4.713,0-8.533,3.821-8.533,8.533C93.867,350.313,97.687,354.133,102.4,354.133z"/>
		<path d="M204.8,311.467c4.713,0,8.533-3.82,8.533-8.533v-17.067c0-4.713-3.821-8.533-8.533-8.533
			c-4.713,0-8.533,3.821-8.533,8.533v17.067C196.267,307.646,200.087,311.467,204.8,311.467z"/>
		<path d="M281.6,285.867h128c9.422-0.009,17.057-7.645,17.067-17.067v-68.267c-0.009-9.422-7.645-17.057-17.067-17.067h-128
			c-9.422,0.009-17.057,7.645-17.067,17.067V268.8C264.543,278.222,272.178,285.857,281.6,285.867z M281.6,200.533h128l0.012,68.267
			H281.6V200.533z"/>
		<path d="M281.6,405.333h128c9.422-0.009,17.057-7.645,17.067-17.067V320c-0.009-9.422-7.645-17.057-17.067-17.067h-128
			c-9.422,0.009-17.057,7.645-17.067,17.067v68.267C264.543,397.688,272.178,405.324,281.6,405.333z M281.6,320h128l0.012,68.267
			H281.6V320z"/>
		<path d="M358.4,337.067h-25.6c-4.713,0-8.533,3.821-8.533,8.533c0,4.713,3.82,8.533,8.533,8.533h25.6
			c4.713,0,8.533-3.821,8.533-8.533C366.933,340.887,363.113,337.067,358.4,337.067z"/>
		<path d="M503.467,465.067h-59.733v-25.6c9.422-0.009,17.057-7.645,17.067-17.067V132.267h25.6c4.067,0,7.569-2.87,8.367-6.858
			l17.067-85.333c0.502-2.507-0.147-5.107-1.767-7.084c-1.621-1.977-4.043-3.124-6.599-3.124h-59.733
			c-42.395,0.049-76.751,34.405-76.8,76.8v42.667H281.6v-17.067c-0.037-32.974-26.759-59.696-59.733-59.733h-8.533
			c0-4.713-3.821-8.533-8.533-8.533H102.4c-4.713,0-8.533,3.821-8.533,8.533H8.533C3.821,72.533,0,76.354,0,81.067V115.2
			c0,4.713,3.821,8.533,8.533,8.533h25.6v25.6H17.067C7.645,149.343,0.009,156.978,0,166.4v256
			c0.009,9.422,7.645,17.057,17.067,17.067v25.6H8.533C3.821,465.067,0,468.887,0,473.6c0,4.713,3.821,8.533,8.533,8.533h494.933
			c4.713,0,8.533-3.821,8.533-8.533C512,468.887,508.18,465.067,503.467,465.067z M479.404,115.2H460.8V46.933h32.258L479.404,115.2
			z M384,106.667c0.037-32.974,26.759-59.696,59.733-59.733V115.2H384V106.667z M384,132.267h59.733v17.067H384V132.267z
			 M221.867,89.6c23.553,0.028,42.639,19.114,42.667,42.667v17.067h-51.2V89.6H221.867z M196.267,81.067V115.2h-85.333V81.067
			H196.267z M17.067,89.6h76.8v17.067h-76.8V89.6z M51.2,123.733h42.667c0,4.713,3.821,8.533,8.533,8.533h93.867v17.067H51.2
			V123.733z M17.067,166.4h426.667l0.012,256H17.067V166.4z M34.133,465.067v-25.6h392.533v25.6H34.133z"/>
	</g>
</g>
<g>
</g>
<g>
</g>
<g>
</g>
<g>
</g>
<g>
</g>
<g>
</g>
<g>
</g>
<g>
</g>
<g>
</g>
<g>
</g>
<g>
</g>
<g>
</g>
<g>
</g>
<g>
</g>
<g>
</g>
</svg>
